<?xml version="1.0" standalone="no"?>
<!DOCTYPE svg PUBLIC "-//W3C//DTD SVG 20010904//EN"
 "http://www.w3.org/TR/2001/REC-SVG-20010904/DTD/svg10.dtd">
<svg version="1.0" xmlns="http://www.w3.org/2000/svg"
 width="225.000000pt" height="225.000000pt" viewBox="0 0 225.000000 225.000000"
 preserveAspectRatio="xMidYMid meet">

<g transform="translate(0.000000,225.000000) scale(0.100000,-0.100000)"
fill="#000000" stroke="none">
<path d="M169 1671 l-29 -29 0 -431 0 -430 24 -28 c21 -25 32 -28 99 -31 75
-4 75 -4 81 -35 15 -75 99 -138 187 -139 91 0 180 66 196 145 l6 27 430 -2
430 -3 10 -30 c50 -157 270 -186 358 -47 16 25 29 53 29 63 0 11 12 18 38 23
22 3 48 16 61 30 l24 25 -6 268 c-4 215 -9 286 -25 360 -23 105 -71 204 -117
239 -74 56 -34 54 -935 54 l-832 0 -29 -29z m1694 -42 c36 -10 107 -69 107
-89 0 -6 -275 -11 -720 -12 l-719 -3 -23 -23 c-21 -20 -23 -34 -26 -139 -4
-125 7 -185 36 -199 9 -5 305 -11 657 -14 l640 -5 69 -33 c38 -17 91 -48 118
-68 l49 -36 -3 -107 -3 -106 -26 -3 c-21 -2 -28 2 -33 22 -9 38 -65 97 -111
117 -89 41 -196 10 -246 -70 -16 -25 -29 -51 -29 -58 0 -10 -84 -13 -433 -13
l-433 0 -12 34 c-24 66 -109 125 -181 126 -86 0 -166 -51 -192 -125 l-13 -36
-66 3 -65 3 -3 409 c-1 293 1 413 9 422 10 12 148 14 813 14 527 0 814 -4 839
-11z m-983 -289 l0 -120 -165 0 -165 0 0 120 0 120 165 0 165 0 0 -120z m400
0 l0 -120 -170 0 -170 0 0 120 0 120 170 0 170 0 0 -120z m390 0 l0 -120 -165
0 -165 0 0 120 0 120 165 0 165 0 0 -120z m347 65 c12 -49 35 -296 27 -304 -2
-2 -26 11 -53 29 -60 38 -173 79 -218 80 l-33 0 0 125 0 126 133 -3 132 -3 12
-50z m-1434 -529 c54 -22 87 -70 87 -124 0 -108 -95 -170 -195 -128 -75 32
-101 144 -48 207 27 32 74 58 106 59 10 0 32 -6 50 -14z m1260 0 c52 -22 79
-59 85 -115 3 -39 0 -57 -17 -84 -55 -89 -190 -86 -237 5 -37 71 -11 153 61
188 47 24 65 25 108 6z"/>
<path d="M500 775 c-28 -34 12 -85 54 -69 22 8 31 50 16 69 -16 19 -54 19 -70
0z"/>
<path d="M1762 778 c-32 -32 4 -87 48 -73 25 8 37 50 20 70 -15 18 -51 20 -68
3z"/>
</g>
</svg>
