<?xml version="1.0" standalone="no"?>
<!DOCTYPE svg PUBLIC "-//W3C//DTD SVG 20010904//EN"
 "http://www.w3.org/TR/2001/REC-SVG-20010904/DTD/svg10.dtd">
<svg version="1.0" xmlns="http://www.w3.org/2000/svg"
 width="2560.000000pt" height="1810.000000pt" viewBox="0 0 2560.000000 1810.000000"
 preserveAspectRatio="xMidYMid meet">

<g transform="translate(0.000000,1810.000000) scale(0.100000,-0.100000)"
fill="#000000" stroke="none">
<path d="M15900 15139 c-127 -14 -355 -53 -540 -93 -91 -19 -3178 -567 -6860
-1216 l-6695 -1181 -58 -57 c-113 -111 -221 -274 -261 -395 -22 -65 -112 -599
-131 -777 -11 -101 -18 -332 -25 -765 -11 -698 -31 -1758 -60 -3159 -11 -522
-19 -951 -17 -952 3 -4 306 -117 552 -206 494 -179 663 -228 890 -258 119 -16
523 -23 655 -12 l115 10 52 -51 52 -52 12 -139 c10 -108 10 -151 0 -197 -21
-101 16 -127 154 -108 44 6 83 13 87 15 4 3 19 -19 34 -48 60 -119 133 -203
220 -254 14 -8 -55 -12 -266 -17 -518 -12 -917 -44 -1184 -94 -64 -11 -84 -18
-70 -24 56 -20 424 -47 1009 -74 528 -24 547 -24 1275 -55 1712 -73 2633 -131
3180 -201 261 -33 827 -122 1670 -264 443 -74 1068 -178 1390 -231 504 -82
592 -99 635 -122 46 -24 63 -27 215 -33 91 -4 206 -14 255 -23 50 -8 197 -31
328 -51 l238 -36 162 -80 161 -81 285 27 c323 32 394 33 606 17 83 -7 222 -17
310 -22 88 -5 241 -14 340 -20 99 -6 259 -12 355 -15 96 -2 236 -7 310 -10
324 -12 573 -14 675 -4 168 16 539 65 739 98 99 17 182 28 186 26 3 -2 33 2
67 9 34 8 64 11 67 9 2 -3 39 2 81 11 55 11 82 13 93 5 14 -8 12 -9 -8 -4 -21
5 -22 4 -8 -5 13 -8 47 -3 140 20 67 17 128 28 135 25 8 -2 12 -1 9 3 -3 5 29
19 71 32 41 14 69 26 62 29 -14 4 80 30 112 31 9 0 19 -8 21 -18 6 -20 -36
-22 1018 43 2444 151 3984 274 4393 351 45 9 101 24 124 34 51 22 151 121 217
213 26 37 61 74 77 82 22 12 32 27 44 73 8 31 24 84 35 117 23 68 24 79 10 70
-12 -8 -12 4 0 135 12 136 36 534 52 875 7 153 12 566 13 950 0 724 0 721 -56
1195 -16 140 -41 351 -54 468 -14 118 -41 285 -60 371 -19 87 -35 161 -35 165
0 4 44 4 98 1 95 -7 99 -7 128 18 74 63 116 228 116 457 1 219 -106 1656 -131
1778 -43 203 -104 337 -186 408 -29 24 -57 44 -62 44 -6 0 -23 25 -37 55 -39
79 -100 127 -274 213 l-154 77 -111 3 c-84 3 -137 -2 -214 -17 -55 -12 -103
-21 -106 -21 -3 0 -21 42 -40 93 -20 50 -82 211 -138 357 -55 146 -152 395
-215 553 -63 159 -114 291 -114 294 0 3 9 3 20 0 26 -7 25 -5 -7 51 -145 255
-422 573 -596 686 -265 173 -657 291 -1562 471 -640 128 -654 130 -1305 180
-835 66 -1880 152 -2120 176 -243 24 -472 31 -590 18z m456 -54 c175 -18 1378
-118 2224 -185 710 -56 719 -57 1449 -205 486 -99 702 -152 976 -241 384 -126
558 -242 788 -529 107 -134 221 -299 209 -303 -5 -1 -88 11 -183 27 -582 102
-1414 218 -2119 295 -704 78 -1081 106 -1515 113 -286 4 -356 2 -440 -11 -149
-25 -273 -72 -440 -166 -164 -94 -209 -135 -244 -226 -26 -69 -51 -206 -51
-282 0 -38 92 -436 295 -1281 392 -1631 678 -2828 765 -3201 39 -168 82 -341
97 -385 65 -201 212 -456 321 -556 71 -66 46 -53 387 -195 517 -214 476 -201
755 -228 457 -44 946 -61 2580 -87 895 -15 999 -8 1225 80 44 17 111 49 149
71 37 22 70 40 72 40 2 0 4 -272 4 -604 l0 -604 -34 0 c-18 0 -71 -17 -117
-37 -91 -40 -173 -54 -207 -36 -19 10 -21 8 -26 -52 -9 -98 -37 -620 -33 -623
4 -5 339 106 349 115 4 4 16 76 27 161 l20 155 -5 -170 c-10 -341 -48 -847
-74 -985 -10 -53 -26 -90 -38 -90 -4 0 -38 -6 -77 -14 -270 -56 -1152 -147
-2860 -296 -352 -31 -676 -59 -1185 -105 -378 -35 -746 -73 -860 -90 -52 -8
-156 -33 -230 -55 -448 -136 -573 -147 -1005 -91 -452 58 -1493 212 -2619 387
l-488 76 -67 -66 -68 -67 -7 363 c-12 633 -33 940 -80 1133 -71 289 -199 553
-396 813 -126 167 -209 254 -303 315 -140 93 -270 134 -452 144 -318 16 -554
-110 -719 -384 -153 -256 -256 -614 -256 -893 0 -96 -21 -333 -51 -585 -11
-93 -24 -235 -29 -315 -13 -207 -10 -202 -79 -137 l-56 53 -330 43 c-939 121
-1216 157 -1720 221 -2231 281 -3664 434 -4206 447 -238 6 -248 5 -320 -17
-41 -13 -100 -24 -131 -24 -100 -2 -92 -45 -99 567 -6 529 -6 533 -31 638 -50
204 -114 382 -190 531 -55 109 -113 170 -238 253 -150 100 -250 111 -356 41
-210 -140 -335 -398 -410 -846 -24 -148 -29 -442 -10 -672 9 -109 16 -203 16
-210 0 -7 -28 15 -62 48 l-63 61 -115 -9 c-63 -5 -227 -7 -365 -4 -360 7 -481
28 -825 144 -171 58 -869 310 -878 317 -1 1 7 440 18 976 25 1220 36 1849 50
2769 15 1064 23 1167 140 1773 29 154 103 286 252 451 l54 59 6704 1183 c3688
650 6768 1196 6845 1213 442 97 690 118 991 86z m1835 -2813 c69 -34 108 -100
123 -211 l7 -44 -39 49 c-50 64 -112 118 -159 142 -57 29 -310 62 -471 62 -41
0 -73 3 -69 6 11 12 203 22 382 21 166 -2 184 -4 226 -25z m4869 -245 c114
-57 154 -87 117 -87 -20 0 -73 -62 -93 -108 -57 -134 -66 -335 -34 -777 11
-148 20 -274 19 -280 0 -5 -14 35 -30 90 -104 346 -208 660 -354 1059 -25 70
-45 129 -43 131 11 11 155 33 218 34 72 0 80 -2 200 -62z m-4799 -26 c95 -6
145 -14 168 -26 109 -56 221 -260 265 -482 19 -95 20 -104 102 -978 70 -748
74 -855 39 -990 -35 -134 -103 -235 -169 -253 -51 -14 -435 12 -472 31 -113
59 -231 284 -273 523 -8 46 -90 902 -157 1634 -3 36 0 112 6 169 20 184 75
314 153 361 36 23 107 25 338 11z m-14017 -4930 c-53 -6 -97 -29 -127 -65
-102 -120 -158 -321 -158 -571 -1 -271 55 -471 164 -593 l41 -47 -46 43 c-54
52 -108 159 -138 275 -110 433 40 973 269 966 l46 -2 -51 -6z m167 -97 c181
-263 182 -819 3 -1089 -34 -52 -108 -114 -121 -101 -3 3 -1 6 6 6 19 0 98 78
124 123 85 145 130 417 108 636 -23 220 -80 378 -168 467 -37 37 -40 43 -16
25 18 -12 47 -42 64 -67z m-87 1 c77 -53 132 -147 169 -293 18 -74 22 -113 21
-262 -1 -193 -15 -273 -73 -397 -148 -315 -403 -174 -461 255 -58 422 145 832
344 697z m19263 -885 l-32 -265 -128 -44 c-70 -24 -130 -42 -132 -39 -2 2 2
114 10 248 8 135 15 257 15 273 0 23 4 27 29 27 33 0 117 26 206 64 41 17 61
21 62 13 1 -7 -12 -131 -30 -277z m-10687 195 c0 -2 -10 -9 -22 -15 -22 -11
-22 -10 -4 4 21 17 26 19 26 11z m-50 -28 c0 -2 -10 -12 -22 -23 l-23 -19 19
23 c18 21 26 27 26 19z m525 -132 c60 -85 147 -267 133 -280 -2 -3 -13 19 -23
48 -40 113 -103 221 -179 307 -34 38 -35 40 -7 15 18 -16 52 -57 76 -90z
m-207 39 c110 -49 216 -194 276 -377 79 -241 71 -574 -18 -811 -57 -151 -154
-274 -254 -323 -76 -37 -173 -39 -247 -3 -166 79 -296 332 -326 635 -31 308
58 637 217 798 111 113 222 139 352 81z m-433 -30 c-20 -26 -43 -60 -51 -75
-8 -16 -17 -29 -20 -29 -9 0 37 77 68 115 43 51 44 43 3 -11z m10912 4 c-3 -8
-6 -5 -6 6 -1 11 2 17 5 13 3 -3 4 -12 1 -19z m-11030 -224 c-126 -322 -114
-774 28 -1081 18 -40 31 -73 29 -73 -11 0 -74 151 -98 233 -86 295 -71 680 36
937 29 70 33 57 5 -16z m927 -198 c9 -41 16 -85 15 -98 0 -13 -11 29 -24 92
-14 63 -24 117 -24 120 1 15 20 -49 33 -114z m-9349 66 c-3 -3 -11 0 -18 7 -9
10 -8 11 6 5 10 -3 15 -9 12 -12z m73 -9 c-10 -2 -28 -2 -40 0 -13 2 -5 4 17
4 22 1 32 -1 23 -4z m9303 -458 c-6 -75 -7 -59 -7 95 0 159 1 172 7 90 4 -53
4 -136 0 -185z m-21 -187 c-16 -94 -23 -81 -8 16 7 42 14 72 17 65 2 -7 -2
-43 -9 -81z m-39 -159 c-12 -39 -24 -69 -26 -67 -2 2 6 36 18 75 11 40 23 71
25 68 2 -2 -6 -36 -17 -76z m-45 -116 c-8 -15 -15 -25 -16 -21 0 12 23 58 27
54 3 -2 -2 -17 -11 -33z m-51 -101 c-19 -34 -41 -64 -47 -68 -7 -4 -3 6 9 22
11 16 30 49 42 72 12 24 25 42 27 39 3 -2 -11 -32 -31 -65z m-690 -57 c17 -23
21 -33 9 -23 -10 9 -28 32 -38 50 -22 39 -11 29 29 -27z m635 -28 c0 -1 -24
-25 -52 -52 l-53 -50 50 53 c46 48 55 57 55 49z m-570 -52 c19 -19 32 -35 29
-35 -3 0 -20 16 -39 35 -19 19 -32 35 -29 35 3 0 20 -16 39 -35z m61 -52 c13
-16 12 -17 -3 -4 -10 7 -18 15 -18 17 0 8 8 3 21 -13z m64 -41 c-3 -3 -11 0
-18 7 -9 10 -8 11 6 5 10 -3 15 -9 12 -12z m158 -29 c-13 -2 -35 -2 -50 0 -16
2 -5 4 22 4 28 0 40 -2 28 -4z m4484 -409 c-3 -3 -12 -4 -19 -1 -8 3 -5 6 6 6
11 1 17 -2 13 -5z"/>
<path d="M15395 14173 c-44 -4 -557 -78 -2175 -318 -239 -35 -572 -85 -740
-109 -168 -25 -564 -84 -880 -130 -1293 -191 -2433 -359 -2720 -401 -168 -25
-348 -52 -400 -60 -52 -8 -187 -28 -300 -44 -113 -17 -448 -66 -745 -110 -297
-44 -1091 -161 -1765 -261 -674 -99 -1558 -230 -1965 -290 -407 -60 -1030
-152 -1384 -205 -354 -52 -646 -97 -648 -99 -18 -17 -102 -419 -132 -626 -69
-474 -45 -964 65 -1327 23 -78 26 -83 52 -83 15 0 110 5 212 10 102 5 415 21
695 35 281 14 830 41 1220 60 391 19 1032 51 1425 70 393 19 1030 51 1415 70
385 19 1114 55 1620 80 506 25 1098 54 1315 65 217 11 577 29 800 40 223 11
635 31 915 45 3942 194 3815 188 3819 184 3 -2 16 -87 31 -189 115 -802 256
-1625 357 -2070 46 -207 140 -553 175 -647 3 -8 -3 -13 -16 -13 -21 0 -21 -3
-21 -207 1 -302 38 -3155 42 -3157 2 -1 224 -30 493 -64 270 -34 702 -89 960
-122 259 -33 493 -63 520 -66 l50 -6 27 83 27 84 -19 1340 c-11 737 -20 1420
-20 1518 0 170 -1 177 -20 177 -24 0 -24 -13 -10 810 8 464 7 570 -5 645 -16
103 -49 394 -65 570 -14 155 -48 362 -116 710 -174 886 -593 2735 -686 3025
-37 115 -104 274 -151 356 -128 226 -335 431 -532 526 -176 84 -441 121 -720
101z m1482 -2052 c7 -24 15 -53 19 -64 6 -19 3 -20 -69 -13 -116 10 -611 8
-717 -4 -122 -13 -215 -35 -264 -63 -29 -16 -51 -43 -86 -105 -57 -99 -65
-142 -55 -321 7 -119 -4 -867 -25 -1816 -5 -231 -15 -682 -21 -1002 -7 -321
-14 -581 -17 -579 -4 5 -55 3907 -50 3911 6 6 1174 103 1223 102 l49 -2 13
-44z m-995 -4813 c189 -392 464 -783 697 -992 222 -197 575 -359 937 -428
l112 -22 6 -125 c3 -69 9 -398 12 -731 5 -477 4 -614 -6 -647 -7 -24 -14 -43
-14 -43 -15 0 -1880 240 -1881 242 -2 2 -10 608 -19 1348 -8 740 -18 1453 -21
1585 l-5 240 59 -147 c32 -80 88 -206 123 -280z"/>
<path d="M6965 10144 c-291 -17 -531 -32 -532 -33 -2 -1 -3 -982 -3 -2181 l0
-2180 40 0 40 0 0 2145 0 2145 28 0 c15 0 214 11 442 25 228 14 423 25 433 25
16 0 17 -113 17 -2225 l0 -2225 40 0 40 0 0 2264 c0 1246 -3 2266 -7 2268 -5
2 -246 -10 -538 -28z"/>
<path d="M22185 6324 c-33 -2 -217 -11 -410 -19 -192 -9 -354 -18 -360 -20 -5
-2 133 -4 308 -4 l317 -1 -310 -372 c-241 -289 -307 -374 -299 -385 6 -7 15
-13 20 -13 5 0 148 168 319 372 286 343 309 374 293 387 -15 11 35 12 341 7
198 -3 361 -7 363 -9 5 -5 95 -659 91 -662 -2 -1 -299 -35 -660 -76 -362 -40
-656 -75 -653 -77 4 -5 1338 109 1344 114 12 11 41 309 41 426 0 207 -22 287
-88 316 -31 13 -83 16 -317 18 -154 0 -307 0 -340 -2z"/>
<path d="M20788 6243 c6 -2 18 -2 25 0 6 3 1 5 -13 5 -14 0 -19 -2 -12 -5z"/>
<path d="M20570 6231 l-75 -6 3 -40 c1 -22 11 -74 21 -115 l19 -75 1 61 c2
127 14 141 144 169 l62 13 -50 -1 c-27 0 -84 -3 -125 -6z"/>
<path d="M18620 6200 c-52 -4 -147 -17 -210 -28 -63 -12 -143 -24 -177 -28
l-63 -7 0 -41 c0 -22 7 -120 15 -216 8 -96 15 -187 15 -202 0 -25 6 -29 72
-49 40 -12 122 -32 183 -44 195 -41 289 -48 575 -40 377 10 869 30 874 35 2 3
-12 145 -32 315 l-37 310 -560 1 c-308 1 -603 -2 -655 -6z m1171 -42 c0 -2 15
-122 33 -268 l32 -265 -111 -7 c-186 -11 -711 -28 -880 -28 -178 0 -297 15
-487 61 -148 36 -131 8 -148 234 -15 212 -15 215 16 215 15 0 92 11 173 25 80
13 166 26 191 28 50 4 1179 8 1181 5z"/>
<path d="M20542 5970 c0 -14 2 -19 5 -12 2 6 2 18 0 25 -3 6 -5 1 -5 -13z"/>
<path d="M21468 5443 c12 -2 30 -2 40 0 9 3 -1 5 -23 4 -22 0 -30 -2 -17 -4z"/>
<path d="M21368 5433 c6 -2 18 -2 25 0 6 3 1 5 -13 5 -14 0 -19 -2 -12 -5z"/>
<path d="M17921 11954 c-80 -81 -121 -226 -121 -428 0 -129 122 -1532 146
-1681 43 -267 167 -491 290 -524 21 -5 122 -13 225 -17 l185 -7 38 33 c47 42
89 124 111 220 35 151 31 234 -39 1030 -37 410 -71 781 -77 825 -26 208 -110
417 -203 510 -65 65 -89 71 -329 81 l-177 7 -49 -49z"/>
</g>
</svg>
